<svg xmlns="http://www.w3.org/2000/svg" viewBox="0 0 100 100" width="100%" height="100%">
    <defs>
        <linearGradient id="goldLinear" x1="0%" y1="0%" x2="100%" y2="100%">
            <stop offset="0%" stop-color="#eac267"/>
            <stop offset="50%" stop-color="#bfa250"/>
            <stop offset="100%" stop-color="#8c7333"/>
        </linearGradient>
        <linearGradient id="ogumLinear" x1="0%" y1="0%" x2="100%" y2="100%">
            <stop offset="0%" stop-color="#80cba0"/>
            <stop offset="50%" stop-color="#2c7247"/>
            <stop offset="100%" stop-color="#144626"/>
        </linearGradient>
    </defs>
    
    <!-- Espada de Ogum (Verde Original) -->
    <g transform="rotate(-22.5 50 50)">
        <path d="M 50,92 C 45,62 43,28 50,4 C 57,28 55,62 50,92 Z" fill="none" stroke="url(#ogumLinear)" stroke-width="1.75" stroke-linecap="round"/>
        <path d="M 47,72 L 53,70 M 46,58 L 54,55 M 46,44 L 54,40 M 47,30 L 53,26" fill="none" stroke="url(#ogumLinear)" stroke-width="1" stroke-opacity="0.7"/>
        <line x1="50" y1="92" x2="50" y2="4" stroke="url(#ogumLinear)" stroke-width="1" stroke-opacity="0.5"/>
    </g>
    
    <!-- Espada de Iansã (Dourado Original) -->
    <g transform="rotate(22.5 50 50)">
        <path d="M 50,92 C 45,62 43,28 50,4 C 57,28 55,62 50,92 Z" fill="none" stroke="url(#goldLinear)" stroke-width="1.75" stroke-linecap="round"/>
        <path d="M 48,80 C 46.5,58 45.5,35 50,12 C 54.5,35 53.5,58 52,80" fill="none" stroke="url(#goldLinear)" stroke-width="0.75" stroke-opacity="0.6"/>
    </g>
</svg>
